<svg id="Capa_1" enable-background="new 0 0 512 512" height="512" viewBox="0 0 512 512" width="512" xmlns="http://www.w3.org/2000/svg"><path d="m497 512h-482c-8.284 0-15-6.716-15-15v-36.559c0-26.177 6.697-52.12 19.368-75.025s31.088-42.365 53.263-56.276l95.398-59.847c2.388-1.498 5.151-2.293 7.971-2.293h160c2.819 0 5.583.795 7.972 2.293l95.398 59.847h-.001c22.175 13.911 40.593 33.371 53.264 56.276 12.67 22.905 19.367 48.849 19.367 75.025v36.559c0 8.284-6.716 15-15 15z" fill="#86beec"/><path d="m492.633 385.416c-12.671-22.905-31.089-42.365-53.264-56.276h.001l-95.398-59.847c-2.389-1.498-5.153-2.293-7.972-2.293h-80v245h241c8.284 0 15-6.716 15-15v-36.559c0-26.176-6.697-52.12-19.367-75.025z" fill="#2681ff"/><circle cx="256" cy="300" fill="#ffbda8" r="80"/><path d="m256 220v160c44.183 0 80-35.817 80-80s-35.817-80-80-80z" fill="#faa68c"/><path d="m256 310c-60.751 0-110-49.249-110-110v-90c0-60.751 49.249-110 110-110 60.751 0 110 49.249 110 110v90c0 60.751-49.249 110-110 110z" fill="#ffccbd"/><path d="m256 0v310c60.751 0 110-49.249 110-110v-90c0-60.751-49.249-110-110-110z" fill="#ffbda8"/><path d="m370 267h-93c-8.284 0-15-6.716-15-15s6.716-15 15-15h93c13.785 0 25-11.215 25-25v-59c0-13.785-11.215-25-25-25h-24c-8.284 0-15-6.716-15-15s6.716-15 15-15h24c30.327 0 55 24.673 55 55v59c0 30.327-24.673 55-55 55z" fill="#00429c"/><path d="m239.616 103.078 16.384-17.078 16.355 17.172c15.099 15.855 36.037 24.828 57.931 24.828h35.714v-18c0-60.751-49.249-110-110-110-60.751 0-110 49.249-110 110v17.694h35.887c21.793 0 42.642-8.89 57.729-24.616z" fill="#5e6b75"/><path d="m416 437h-80c-8.284 0-15-6.716-15-15s6.716-15 15-15h80c8.284 0 15 6.716 15 15s-6.716 15-15 15z" fill="#00429c"/><path d="m256 0v86l16.355 17.172c15.099 15.855 36.037 24.828 57.931 24.828h35.714v-18c0-60.751-49.249-110-110-110z" fill="#4f5961"/></svg>