<svg id="Capa_1" enable-background="new 0 0 512 512" height="512" viewBox="0 0 512 512" width="512" xmlns="http://www.w3.org/2000/svg"><path d="m146.971 165.625-56.569-56.569c-7.81-7.81-20.474-7.81-28.284 0l-24.042 24.042c-50.768 50.768-50.768 133.08 0 183.848l156.978 156.978c50.768 50.768 133.08 50.768 183.848 0l24.042-24.042c7.81-7.81 7.81-20.474 0-28.284l-56.569-56.569c-7.81-7.81-20.474-7.81-28.284 0l-42.426 42.426c-7.81 7.81-20.474 7.81-28.284 0l-142.837-142.835c-7.81-7.81-7.81-20.474 0-28.284l42.426-42.426c7.811-7.811 7.811-20.474.001-28.285z" fill="#ffc278"/><path d="m346.375 365.029c-7.81-7.81-20.474-7.81-28.284 0l-42.426 42.426c-7.81 7.81-20.474 7.81-28.284 0l-71.418-71.418-59.397 59.397 78.489 78.489c50.768 50.768 133.08 50.768 183.848 0l24.042-24.042c7.81-7.81 7.81-20.474 0-28.284z" fill="#ffb554"/><path d="m492 0h-199c-11.046 0-20 8.954-20 20v159c0 11.046 8.954 20 20 20h53v52.246c0 8.545 10.025 13.154 16.511 7.59l69.75-59.836h59.739c11.046 0 20-8.954 20-20v-159c0-11.046-8.954-20-20-20z" fill="#00ddc1"/><path d="m313 199h33v52.246c0 8.545 10.025 13.154 16.511 7.59l69.75-59.836h59.739c11.046 0 20-8.954 20-20v-159c0-5.523-2.239-10.523-5.858-14.142z" fill="#00b4bc"/><path d="m385 145h-62c-8.284 0-15-6.716-15-15s6.716-15 15-15h62c8.284 0 15 6.716 15 15s-6.716 15-15 15z" fill="#00a88f"/><path d="m462 85h-139c-8.284 0-15-6.716-15-15s6.716-15 15-15h139c8.284 0 15 6.716 15 15s-6.716 15-15 15z" fill="#00a88f"/><g fill="#008575"><path d="m385 145c8.284 0 15-6.716 15-15 0-4.908-2.368-9.252-6.012-11.988l-26.988 26.988z"/><path d="m462 55h-5l-30 30h35c8.284 0 15-6.716 15-15s-6.716-15-15-15z"/></g></svg>