<svg height="512" viewBox="0 0 64 64" width="512" xmlns="http://www.w3.org/2000/svg"><g id="School"><path d="m61 57v4h-58v-4h2 54z" fill="#9cdd05"/><path d="m56 23 4 12h-2-10v-6h2 4l-1.71-6z" fill="#c0ab91"/><path d="m59 53v4h-54v-4h1 10 8 8 8 8 10z" fill="#c0ab91"/><path d="m48 35h10v18h-10z" fill="#fee9ab"/><path d="m52.29 23 1.71 6h-4l-15.69-13.95.05-.05h15.64z" fill="#ff7956"/><path d="m50 29h-36l18-16z" fill="#fee9ab"/><path d="m16 29h32v24h-32z" fill="#ff7956"/><path d="m38 33h4v4h-4z" fill="#46f8ff"/><path d="m32 41h8v12h-8z" fill="#46f8ff"/><path d="m40 3-2 2 2 2h-8v-4z" fill="#ff3051"/><circle cx="32" cy="22" fill="#ff7956" r="4"/><path d="m30 33h4v4h-4z" fill="#46f8ff"/><path d="m24 41h8v12h-8z" fill="#46f8ff"/><path d="m29.69 15.05-15.69 13.95h-4l1.71-6 2.29-8h15.64z" fill="#ff7956"/><path d="m22 33h4v4h-4z" fill="#46f8ff"/><path d="m6 35h10v18h-10z" fill="#fee9ab"/><path d="m16 29v6h-10-2l4-12h3.71l-1.71 6h4z" fill="#c0ab91"/><path d="m61 56h-1v-3a1 1 0 0 0 -1-1v-16h1a1 1 0 0 0 .949-1.316l-4-12a1 1 0 0 0 -.949-.684h-2.96l-2.079-7.275a1 1 0 0 0 -.961-.725h-15.369l-1.631-1.449v-4.551h7a1 1 0 0 0 .707-1.707l-1.293-1.293 1.293-1.293a1 1 0 0 0 -.707-1.707h-8a1 1 0 0 0 -1 1v9.551l-1.631 1.449h-15.369a1 1 0 0 0 -.961.725l-2.079 7.275h-2.96a1 1 0 0 0 -.949.684l-4 12a1 1 0 0 0 .949 1.316h1v16a1 1 0 0 0 -1 1v3h-1a1 1 0 0 0 -1 1v4a1 1 0 0 0 1 1h58a1 1 0 0 0 1-1v-4a1 1 0 0 0 -1-1zm-4-4h-8v-16h8zm-32 0v-10h6v10zm8-10h6v10h-6zm7-2h-16a1 1 0 0 0 -1 1v11h-6v-22h30v22h-6v-11a1 1 0 0 0 -1-1zm-23.37-12 15.37-13.662 15.37 13.662zm38.649-4 3.334 10h-9.613v-4h5a1 1 0 0 0 .961-1.275l-1.35-4.725zm-6.033-8 3.428 12h-2.293l-13.5-12zm-16.246-12h4.586l-.293.293a1 1 0 0 0 0 1.414l.293.293h-4.586zm-18.246 12h12.365l-13.5 12h-2.293zm-6.033 8h1.668l-1.35 4.725a1 1 0 0 0 .961 1.275h5v4h-9.613zm-1.721 12h8v16h-8zm-1 18h52v2h-52zm54 6h-56v-2h56z"/><path d="m9 38h4v2h-4z"/><path d="m9 42h4v2h-4z"/><path d="m9 46h4v2h-4z"/><path d="m51 38h4v2h-4z"/><path d="m51 42h4v2h-4z"/><path d="m51 46h4v2h-4z"/><path d="m27 22a5 5 0 1 0 5-5 5.006 5.006 0 0 0 -5 5zm8 0a3 3 0 1 1 -3-3 3 3 0 0 1 3 3z"/><path d="m31 20v2a1 1 0 0 0 1 1h2v-2h-1v-1z"/><path d="m26 32h-4a1 1 0 0 0 -1 1v4a1 1 0 0 0 1 1h4a1 1 0 0 0 1-1v-4a1 1 0 0 0 -1-1zm-1 4h-2v-2h2z"/><path d="m34 32h-4a1 1 0 0 0 -1 1v4a1 1 0 0 0 1 1h4a1 1 0 0 0 1-1v-4a1 1 0 0 0 -1-1zm-1 4h-2v-2h2z"/><path d="m43 37v-4a1 1 0 0 0 -1-1h-4a1 1 0 0 0 -1 1v4a1 1 0 0 0 1 1h4a1 1 0 0 0 1-1zm-2-1h-2v-2h2z"/></g></svg>